<?xml version="1.0" standalone="no"?><!DOCTYPE svg PUBLIC "-//W3C//DTD SVG 1.1//EN" "http://www.w3.org/Graphics/SVG/1.1/DTD/svg11.dtd"><svg t="1583801809448" class="icon" viewBox="0 0 1024 1024" version="1.1" xmlns="http://www.w3.org/2000/svg" p-id="8362" xmlns:xlink="http://www.w3.org/1999/xlink" width="200" height="200"><defs><style type="text/css"></style></defs><path d="M827.452555 963.30157 196.547445 963.30157c-74.90806 0-135.850038-60.941977-135.850038-135.850038L60.697407 196.547445c0-74.90806 60.941977-135.850038 135.850038-135.850038l630.90511 0c74.90806 0 135.850038 60.941977 135.850038 135.850038l0 630.904087C963.30157 902.360616 902.360616 963.30157 827.452555 963.30157zM196.547445 122.095779c-41.052998 0-74.451666 33.398668-74.451666 74.451666l0 630.904087c0 41.052998 33.398668 74.451666 74.451666 74.451666l630.90511 0c41.052998 0 74.451666-33.398668 74.451666-74.451666L901.904221 196.547445c0-41.052998-33.398668-74.451666-74.451666-74.451666L196.547445 122.095779z" p-id="8363"></path><path d="M468.164632 795.189757c-7.880481 0-15.510252-3.035126-21.258163-8.552793L201.573925 551.124066c-12.230556-11.741415-12.627598-31.175023-0.886183-43.405579 11.741415-12.232602 31.175023-12.629645 43.406602-0.886183l218.73784 209.983455 312.701908-474.204186c9.332553-14.153348 28.373211-18.061354 42.529629-8.728802 14.154371 9.333576 18.061354 28.375258 8.727779 42.528606L493.795383 781.391497c-5.01727 7.609305-13.156648 12.594853-22.214954 13.607926C470.439442 795.127336 469.299479 795.189757 468.164632 795.189757z" p-id="8364"></path></svg>