<?xml version="1.0" standalone="no"?><!DOCTYPE svg PUBLIC "-//W3C//DTD SVG 1.1//EN" "http://www.w3.org/Graphics/SVG/1.1/DTD/svg11.dtd"><svg t="1583801759869" class="icon" viewBox="0 0 1024 1024" version="1.1" xmlns="http://www.w3.org/2000/svg" p-id="5844" xmlns:xlink="http://www.w3.org/1999/xlink" width="200" height="200"><defs><style type="text/css"></style></defs><path d="M712.533333 977.066667H264.533333c-145.066667 0-264.533333-119.466667-264.533333-264.533334V264.533333C0 119.466667 119.466667 0 264.533333 0h443.733334c145.066667 0 264.533333 119.466667 264.533333 264.533333v443.733334c4.266667 149.333333-115.2 268.8-260.266667 268.8zM264.533333 42.666667C140.8 42.666667 42.666667 140.8 42.666667 264.533333v443.733334c0 123.733333 98.133333 221.866667 221.866666 221.866666h443.733334c123.733333 0 221.866667-98.133333 221.866666-221.866666V264.533333c0-123.733333-98.133333-221.866667-221.866666-221.866666H264.533333z" p-id="5845"></path></svg>